<svg xmlns="http://www.w3.org/2000/svg" width="80" height="50"><path fill="#00C1DE" d="M46.606 4.436L29.563.218 28.284 5l.449 1.189-.781.054-1.632 6.096 3.886-1.616 1.01 2.23 15.39-8.517z"/><path fill="#FFF" d="M46.606 4.436l-16.4 6.287 1.01 2.23 15.39-8.517zM28.284 5l.449 1.189 17.873-1.753L28.284 5zm1.318 10.845l-.095-.021c-.442-.094-.961-.034-1.544.178-.618.229-1.003.574-1.144 1.033-.774 2.77-1.449 4.803-1.998 6.044-.852 1.922-1.951 3.646-3.265 5.126-.175.193-.417.217-.787.088-.594-.199-1.031-.639-1.336-1.352-2.317-5.363-3.992-8.849-4.97-10.361-.392-.618-.996-.932-1.796-.932-.268 0-.556.031-.857.091-.481.104-.867.453-1.145 1.04-.273.583-.311 1.102-.104 1.551a789.402 789.402 0 0 1 3.351 6.867 183.971 183.971 0 0 1 1.763 4.191c1.648 3.898 3.232 5.791 4.838 5.791.13 0 .262-.014.39-.039.943-.189 1.903-1.367 2.934-3.604a761.363 761.363 0 0 0 2.471-5.487c1.203-2.433 2.014-4.068 2.433-4.908l.021-.059c.027-.114.172-.496.818-1.787.416-.831.617-1.479.617-1.975 0-.515-.179-.987-.53-1.403l-.065-.072zM8.768 20.773l-.081-.043a2.547 2.547 0 0 0-.797-.14c-1.569 0-2.363 1.278-2.363 3.796 0 .477.034 2.433.126 2.907v3.605c-.086 1.193-.111 1.408-.117 1.443l.097.021h-.106C5.528 34.51 6.7 34.96 7.683 34.96c.448 0 .784-.066 1.039-.205.584-.35.932-.891 1.032-1.65v-2.088c0-.518.027-1.291.082-2.295.057-1.004.083-3.187.083-3.76 0-2.232-.375-3.603-1.151-4.189zm-2.95 11.343c.01 0 .02.006.03.006a5.802 5.802 0 0 1-.023.242h-.007l-.001-.248h.001zm1.9-11.918l.071.007.064-.027c1.177-.487 1.773-1.479 1.773-2.948 0-1.652-.973-1.998-1.789-1.998-.12 0-.244.005-.375.02-1.405.154-2.145.952-2.145 2.309 0 .675.229 1.275.681 1.781a2.544 2.544 0 0 0 1.72.856zm26.12-4.782l-.083-.045a2.531 2.531 0 0 0-.798-.139c-1.567 0-2.362 1.295-2.362 3.853 0 .652.042 1.144.126 1.503l.001 10.348a43.47 43.47 0 0 1-.116 1.471l.09.02h-.102c.002 2.18 1.173 2.635 2.157 2.635.449 0 .788-.066 1.038-.209.585-.354.932-.902 1.033-1.672v-8.81c0-.535.028-1.319.083-2.334.055-1.037.083-1.833.083-2.364.001-2.27-.375-3.663-1.15-4.257zm-2.952 16.762c.01 0 .019.006.029.006a4.552 4.552 0 0 1-.022.242h-.007l-.002-.248h.002zm23.636-16.333l-.097-.021c-.442-.094-.963-.034-1.544.178-.618.229-1.001.574-1.143 1.033-.773 2.768-1.449 4.801-2 6.044-.85 1.922-1.949 3.646-3.263 5.126-.175.193-.417.217-.787.088-.595-.199-1.033-.639-1.335-1.352-2.319-5.363-3.994-8.85-4.975-10.361-.518-.824-1.444-1.081-2.651-.841-.481.104-.867.453-1.144 1.04-.276.583-.311 1.102-.102 1.551 1.671 3.4 2.798 5.713 3.348 6.867.854 1.982 1.447 3.391 1.762 4.191 1.649 3.898 3.231 5.791 4.839 5.791h.001c.129 0 .26-.014.39-.039.943-.189 1.901-1.367 2.932-3.604a627.053 627.053 0 0 0 2.471-5.487c1.203-2.433 2.013-4.068 2.433-4.908l.022-.059c.036-.138.206-.561.816-1.787.416-.831.619-1.479.619-1.975 0-.515-.179-.987-.53-1.403l-.062-.072zm19.258 6.89c-.137-.932-.207-1.639-.207-2.098v-2.056c0-2.112-.591-3.183-1.756-3.183-1.429 0-2.283.799-2.47 2.345v2.096c0 4.726-.027 7.471-.084 8.16-.075.99-.574 1.965-1.479 2.906-.896.928-1.842 1.402-2.81 1.402-.208 0-.419-.051-.635-.146-1.704-.725-2.914-1.795-3.599-3.178-.587-1.184-.885-2.819-.885-4.865v-3.607c0-1.814-.264-3.443-.782-4.841l-.031-.083-.071-.052c-.484-.347-.893-.515-1.253-.515-.547 0-1.069.319-1.555.951-.465.61-.701 1.205-.701 1.771 0 .313.016.763.042 1.334.029.569.042 1.009.042 1.309 0 .604-.014 1.519-.043 2.719a148.403 148.403 0 0 0-.041 2.734c0 1.955.231 3.584.686 4.842.815 2.219.94 2.477 1.007 2.557 1.276 1.768 3.221 2.666 5.778 2.666.361 0 .914-.029 1.69-.086.453-.031 1.166-.242 2.183-.654.849-.373 1.528-.561 2.015-.561.346 0 .868.047 1.547.143.714.1 1.248.148 1.627.148 1.651 0 1.999-.908 1.999-1.672v-8.306c-.001-.486-.072-1.222-.214-2.18z"/><g fill="#00C1DE"><path d="M53.123 39.26c-.497-.551-1.208-.969-2.115-1.252-1.16-.357-2.184-.488-3.025-.381-1.92.221-3.496 1.033-4.682 2.406l-.024.033c-.265.414-.442.725-.535.941a5.448 5.448 0 0 0-.878 2.965c0 2.053.965 3.697 2.87 4.893.642.4 1.541.689 2.67.861.348.051.789.074 1.309.074.457 0 .971-.141 1.529-.432a36.529 36.529 0 0 0 1.292-.721c.728-.398 1.405-1.004 2.015-1.805.616-.803.989-1.617 1.112-2.4.02-.119.029-.295.029-.545 0-.723-.156-1.563-.463-2.498-.308-.943-.679-1.662-1.104-2.139zm-1.369 4.936c0 1.34-.422 2.422-1.274 3.242-.006.012-.089.096-.467.15-1.201.176-1.431.195-1.475.195-.783 0-1.548-.324-2.269-.969a4.911 4.911 0 0 1-1.433-2.137c-.169-.502-.172-1.439-.013-2.777.054-.414.427-.885 1.106-1.398.693-.523 1.28-.797 1.742-.813h.069c1.247 0 2.201.412 2.914 1.256.73.858 1.1 1.956 1.1 3.251z"/><path d="M42.641 47.713h-1.092c-.135 0-.318.037-.576.125-.272.092-.37.098-.395.098-1.143 0-2.277-.523-3.368-1.549-1.085-1.025-1.636-2.111-1.636-3.232 0-1.135.374-2.033 1.138-2.744.773-.721 1.711-1.068 2.873-1.068.176 0 .456.039.836.119.419.088.731.129.954.129.703 0 1.106-.365 1.106-1.006 0-.338-.155-.805-.896-1.111a3.375 3.375 0 0 0-1.304-.246c-1.827 0-3.506.564-4.993 1.676-1.692 1.264-2.549 2.898-2.549 4.861 0 1.898.775 3.408 2.309 4.492 1.207.854 2.832 1.406 4.828 1.643.149.021.302.029.455.029.461 0 .944-.08 1.434-.242.873-.293 1.316-.764 1.316-1.385-.001-.548-.337-.589-.44-.589zm31.992-1.257c-.018-1.904-.111-3.469-.276-4.635-.4-2.703-1.317-4.23-2.734-4.537a5.413 5.413 0 0 0-1.155-.131c-.669 0-1.448.127-2.321.385-.26.08-.541.266-.863.568-.372.375-.705.563-.988.563-.335 0-.785-.141-1.335-.416-1.277-.65-1.442-.713-1.49-.734a4.72 4.72 0 0 0-1.697-.291c-.752 0-2.639.219-3.452.74-.373-.311-.889-.469-1.539-.469-.248 0-.473.041-.666.119-.584.227-.894.537-.918.93-.065 1.424-.065 3.902 0 7.365 0 .215-.008.5-.023.859-.018.42-.026.719-.026.904 0 1.717.698 2.076 1.283 2.076.314 0 .676-.105 1.101-.33l.064-.033.039-.055c.152-.223.271-.4.356-.537l.041-.066.002-.076c.017-.59-.025-1.391-.125-2.367-.082-1.211-.124-2.045-.124-2.463 0-1.123.129-2.076.382-2.838.467-1.398.578-1.848.605-2.023.645.014 1.189.057 1.284.098l.05.037.058.016c1.335.309 1.559.455 1.593.482.339.295.671.701.986 1.211.308.506.496.967.557 1.375.097.607.137 1.787.121 3.508 0 .188-.021.49-.06.904-.043.426-.064.758-.064.984 0 .801.209 1.428.63 1.865.157.16.388.236.701.236 1.088 0 1.391-.486 1.453-.896.117-.854.159-2.023.127-3.475-.049-1.719-.049-2.871 0-3.424.045-.621.302-1.348.738-2.135.114-.152.223-.26.327-.328.215-.051.453-.08.709-.08.869 0 1.664.221 2.358.654.779.479 1.166 1.092 1.18 1.871.084 4.203.193 6.521.332 7.096.192.779 1.016.99 2.121.297.493-.303.73-.652.706-1.035a23.57 23.57 0 0 1-.048-1.769zm-42.377-.098c-.133 0-.274.035-.422.102-.581.268-.87.75-.87 1.453 0 .436.125.826.373 1.176.248.352.58.523.993.523.414 0 .771-.127 1.068-.387.299-.256.447-.598.447-1.014 0-.434-.16-.85-.483-1.25-.324-.398-.693-.603-1.106-.603z"/></g></svg>