<?xml version="1.0" encoding="utf-8"?>
<!-- Generator: Adobe Illustrator 16.0.0, SVG Export Plug-In . SVG Version: 6.00 Build 0)  -->
<!DOCTYPE svg PUBLIC "-//W3C//DTD SVG 1.1//EN" "http://www.w3.org/Graphics/SVG/1.1/DTD/svg11.dtd">
<svg version="1.1" id="Layer_1" xmlns="http://www.w3.org/2000/svg" xmlns:xlink="http://www.w3.org/1999/xlink" x="0px" y="0px"
	 width="80px" height="50px" viewBox="0 0 80 50" enable-background="new 0 0 80 50" xml:space="preserve">
<polygon fill="#00C1DE" points="46.606,4.436 29.563,0.218 28.284,5 28.733,6.189 27.952,6.243 26.32,12.339 30.206,10.723 
	31.216,12.953 46.606,4.436 "/>
<polygon fill="#FFFFFF" points="46.606,4.436 30.206,10.723 31.216,12.953 46.606,4.436 "/>
<polygon fill="#FFFFFF" points="28.284,5 28.284,5 28.733,6.189 46.606,4.436 28.284,5 "/>
<g>
	<path fill="#FFFFFF" d="M29.602,15.845l-0.095-0.021c-0.442-0.094-0.961-0.034-1.544,0.178c-0.618,0.229-1.003,0.574-1.144,1.033
		c-0.774,2.77-1.449,4.803-1.998,6.044c-0.852,1.922-1.951,3.646-3.265,5.126c-0.175,0.193-0.417,0.217-0.787,0.088
		c-0.594-0.199-1.031-0.639-1.336-1.352c-2.317-5.363-3.992-8.849-4.97-10.361c-0.392-0.618-0.996-0.932-1.796-0.932
		c-0.268,0-0.556,0.031-0.857,0.091c-0.481,0.104-0.867,0.453-1.145,1.04c-0.273,0.583-0.311,1.102-0.104,1.551
		c1.702,3.461,2.799,5.71,3.351,6.867c0.854,1.982,1.445,3.391,1.763,4.191c1.648,3.898,3.232,5.791,4.838,5.791l0,0
		c0.13,0,0.262-0.014,0.39-0.039c0.943-0.189,1.903-1.367,2.934-3.604c1.215-2.678,2.047-4.529,2.471-5.487
		c1.203-2.433,2.014-4.068,2.433-4.908l0.021-0.059c0.027-0.114,0.172-0.496,0.818-1.787c0.416-0.831,0.617-1.479,0.617-1.975
		c0-0.515-0.179-0.987-0.53-1.403L29.602,15.845L29.602,15.845z"/>
	<path fill="#FFFFFF" d="M8.768,20.773L8.687,20.73c-0.277-0.092-0.546-0.14-0.797-0.14c-1.569,0-2.363,1.278-2.363,3.796
		c0,0.477,0.034,2.433,0.126,2.907v3.605c-0.086,1.193-0.111,1.408-0.117,1.443l0.097,0.021H5.527l0,0
		c0.001,2.148,1.173,2.598,2.156,2.598c0.448,0,0.784-0.066,1.039-0.205c0.584-0.35,0.932-0.891,1.032-1.65v-2.088
		c0-0.518,0.027-1.291,0.082-2.295c0.057-1.004,0.083-3.187,0.083-3.76C9.919,22.73,9.544,21.359,8.768,20.773L8.768,20.773z
		 M5.818,32.116c0.01,0,0.02,0.006,0.03,0.006c-0.009,0.119-0.018,0.199-0.023,0.242H5.818l-0.001-0.248
		C5.818,32.116,5.818,32.116,5.818,32.116L5.818,32.116z"/>
	<path fill="#FFFFFF" d="M7.718,20.198l0.071,0.007l0.064-0.027c1.177-0.487,1.773-1.479,1.773-2.948
		c0-1.652-0.973-1.998-1.789-1.998c-0.12,0-0.244,0.005-0.375,0.02c-1.405,0.154-2.145,0.952-2.145,2.309
		c0,0.675,0.229,1.275,0.681,1.781C6.453,19.848,7.03,20.137,7.718,20.198L7.718,20.198z"/>
	<path fill="#FFFFFF" d="M33.838,15.416l-0.083-0.045c-0.279-0.093-0.547-0.139-0.798-0.139c-1.567,0-2.362,1.295-2.362,3.853
		c0,0.652,0.042,1.144,0.126,1.503l0.001,10.348c-0.084,1.176-0.11,1.426-0.116,1.471l0.09,0.02h-0.102l0,0
		c0.002,2.18,1.173,2.635,2.157,2.635c0.449,0,0.788-0.066,1.038-0.209c0.585-0.354,0.932-0.902,1.033-1.672v-8.81
		c0-0.535,0.028-1.319,0.083-2.334c0.055-1.037,0.083-1.833,0.083-2.364C34.989,17.403,34.613,16.01,33.838,15.416L33.838,15.416z
		 M30.886,32.178c0.01,0,0.019,0.006,0.029,0.006c-0.009,0.123-0.016,0.197-0.022,0.242h-0.007l-0.002-0.248H30.886L30.886,32.178z"
		/>
	<path fill="#FFFFFF" d="M54.522,15.845l-0.097-0.021c-0.442-0.094-0.963-0.034-1.544,0.178c-0.618,0.229-1.001,0.574-1.143,1.033
		c-0.773,2.768-1.449,4.801-2,6.044c-0.85,1.922-1.949,3.646-3.263,5.126c-0.175,0.193-0.417,0.217-0.787,0.088
		c-0.595-0.199-1.033-0.639-1.335-1.352c-2.319-5.363-3.994-8.85-4.975-10.361c-0.518-0.824-1.444-1.081-2.651-0.841
		c-0.481,0.104-0.867,0.453-1.144,1.04c-0.276,0.583-0.311,1.102-0.102,1.551c1.671,3.4,2.798,5.713,3.348,6.867
		c0.854,1.982,1.447,3.391,1.762,4.191c1.649,3.898,3.231,5.791,4.839,5.791h0.001c0.129,0,0.26-0.014,0.39-0.039
		c0.943-0.189,1.901-1.367,2.932-3.604c1.251-2.76,2.063-4.555,2.471-5.487c1.203-2.433,2.013-4.068,2.433-4.908l0.022-0.059
		c0.036-0.138,0.206-0.561,0.816-1.787c0.416-0.831,0.619-1.479,0.619-1.975c0-0.515-0.179-0.987-0.53-1.403L54.522,15.845
		L54.522,15.845z"/>
	<path fill="#FFFFFF" d="M73.78,22.735c-0.137-0.932-0.207-1.639-0.207-2.098v-2.056c0-2.112-0.591-3.183-1.756-3.183
		c-1.429,0-2.283,0.799-2.47,2.345v2.096c0,4.726-0.027,7.471-0.084,8.16c-0.075,0.99-0.574,1.965-1.479,2.906
		c-0.896,0.928-1.842,1.402-2.81,1.402c-0.208,0-0.419-0.051-0.635-0.146c-1.704-0.725-2.914-1.795-3.599-3.178
		c-0.587-1.184-0.885-2.819-0.885-4.865v-3.607c0-1.814-0.264-3.443-0.782-4.841l-0.031-0.083l-0.071-0.052
		c-0.484-0.347-0.893-0.515-1.253-0.515c-0.547,0-1.069,0.319-1.555,0.951c-0.465,0.61-0.701,1.205-0.701,1.771
		c0,0.313,0.016,0.763,0.042,1.334c0.029,0.569,0.042,1.009,0.042,1.309c0,0.604-0.014,1.519-0.043,2.719
		c-0.025,1.195-0.041,2.114-0.041,2.734c0,1.955,0.231,3.584,0.686,4.842c0.815,2.219,0.94,2.477,1.007,2.557
		c1.276,1.768,3.221,2.666,5.778,2.666c0.361,0,0.914-0.029,1.69-0.086c0.453-0.031,1.166-0.242,2.183-0.654
		c0.849-0.373,1.528-0.561,2.015-0.561c0.346,0,0.868,0.047,1.547,0.143c0.714,0.1,1.248,0.148,1.627,0.148
		c1.651,0,1.999-0.908,1.999-1.672v-8.306C73.993,24.429,73.922,23.693,73.78,22.735L73.78,22.735z"/>
</g>
<g>
	<path fill="#00C1DE" d="M53.123,39.26c-0.497-0.551-1.208-0.969-2.115-1.252c-1.16-0.357-2.184-0.488-3.025-0.381
		c-1.92,0.221-3.496,1.033-4.682,2.406l-0.024,0.033c-0.265,0.414-0.442,0.725-0.535,0.941c-0.583,0.916-0.878,1.914-0.878,2.965
		c0,2.053,0.965,3.697,2.87,4.893c0.642,0.4,1.541,0.689,2.67,0.861c0.348,0.051,0.789,0.074,1.309,0.074
		c0.457,0,0.971-0.141,1.529-0.432c0.582-0.314,1.015-0.555,1.292-0.721c0.728-0.398,1.405-1.004,2.015-1.805
		c0.616-0.803,0.989-1.617,1.112-2.4c0.02-0.119,0.029-0.295,0.029-0.545c0-0.723-0.156-1.563-0.463-2.498
		C53.919,40.456,53.548,39.737,53.123,39.26L53.123,39.26z M51.754,44.196c0,1.34-0.422,2.422-1.274,3.242
		c-0.006,0.012-0.089,0.096-0.467,0.15c-1.201,0.176-1.431,0.195-1.475,0.195c-0.783,0-1.548-0.324-2.269-0.969
		c-0.67-0.59-1.154-1.309-1.433-2.137c-0.169-0.502-0.172-1.439-0.013-2.777c0.054-0.414,0.427-0.885,1.106-1.398
		c0.693-0.523,1.28-0.797,1.742-0.813h0.069c1.247,0,2.201,0.412,2.914,1.256C51.384,41.803,51.754,42.901,51.754,44.196
		L51.754,44.196z"/>
	<path fill="#00C1DE" d="M42.641,47.713h-1.092c-0.135,0-0.318,0.037-0.576,0.125c-0.272,0.092-0.37,0.098-0.395,0.098
		c-1.143,0-2.277-0.523-3.368-1.549c-1.085-1.025-1.636-2.111-1.636-3.232c0-1.135,0.374-2.033,1.138-2.744
		c0.773-0.721,1.711-1.068,2.873-1.068c0.176,0,0.456,0.039,0.836,0.119c0.419,0.088,0.731,0.129,0.954,0.129
		c0.703,0,1.106-0.365,1.106-1.006c0-0.338-0.155-0.805-0.896-1.111c-0.399-0.166-0.838-0.246-1.304-0.246
		c-1.827,0-3.506,0.564-4.993,1.676c-1.692,1.264-2.549,2.898-2.549,4.861c0,1.898,0.775,3.408,2.309,4.492
		c1.207,0.854,2.832,1.406,4.828,1.643c0.149,0.021,0.302,0.029,0.455,0.029c0.461,0,0.944-0.08,1.434-0.242
		c0.873-0.293,1.316-0.764,1.316-1.385C43.08,47.754,42.744,47.713,42.641,47.713L42.641,47.713z"/>
	<path fill="#00C1DE" d="M74.633,46.456c-0.018-1.904-0.111-3.469-0.276-4.635c-0.4-2.703-1.317-4.23-2.734-4.537
		c-0.402-0.088-0.789-0.131-1.155-0.131c-0.669,0-1.448,0.127-2.321,0.385c-0.26,0.08-0.541,0.266-0.863,0.568
		c-0.372,0.375-0.705,0.563-0.988,0.563c-0.335,0-0.785-0.141-1.335-0.416c-1.277-0.65-1.442-0.713-1.49-0.734
		c-0.497-0.191-1.067-0.291-1.697-0.291c-0.752,0-2.639,0.219-3.452,0.74c-0.373-0.311-0.889-0.469-1.539-0.469
		c-0.248,0-0.473,0.041-0.666,0.119c-0.584,0.227-0.894,0.537-0.918,0.93c-0.065,1.424-0.065,3.902,0,7.365
		c0,0.215-0.008,0.5-0.023,0.859c-0.018,0.42-0.026,0.719-0.026,0.904c0,1.717,0.698,2.076,1.283,2.076
		c0.314,0,0.676-0.105,1.101-0.33l0.064-0.033l0.039-0.055c0.152-0.223,0.271-0.4,0.356-0.537l0.041-0.066l0.002-0.076
		c0.017-0.59-0.025-1.391-0.125-2.367c-0.082-1.211-0.124-2.045-0.124-2.463c0-1.123,0.129-2.076,0.382-2.838
		c0.467-1.398,0.578-1.848,0.605-2.023c0.645,0.014,1.189,0.057,1.284,0.098l0.05,0.037l0.058,0.016
		c1.335,0.309,1.559,0.455,1.593,0.482c0.339,0.295,0.671,0.701,0.986,1.211c0.308,0.506,0.496,0.967,0.557,1.375
		c0.097,0.607,0.137,1.787,0.121,3.508c0,0.188-0.021,0.49-0.06,0.904c-0.043,0.426-0.064,0.758-0.064,0.984
		c0,0.801,0.209,1.428,0.63,1.865c0.157,0.16,0.388,0.236,0.701,0.236c1.088,0,1.391-0.486,1.453-0.896
		c0.117-0.854,0.159-2.023,0.127-3.475c-0.049-1.719-0.049-2.871,0-3.424c0.045-0.621,0.302-1.348,0.738-2.135
		c0.114-0.152,0.223-0.26,0.327-0.328c0.215-0.051,0.453-0.08,0.709-0.08c0.869,0,1.664,0.221,2.358,0.654
		c0.779,0.479,1.166,1.092,1.18,1.871c0.084,4.203,0.193,6.521,0.332,7.096c0.192,0.779,1.016,0.99,2.121,0.297
		c0.493-0.303,0.73-0.652,0.706-1.035C74.649,47.84,74.633,47.247,74.633,46.456L74.633,46.456z"/>
	<path fill="#00C1DE" d="M32.256,46.358c-0.133,0-0.274,0.035-0.422,0.102c-0.581,0.268-0.87,0.75-0.87,1.453
		c0,0.436,0.125,0.826,0.373,1.176c0.248,0.352,0.58,0.523,0.993,0.523c0.414,0,0.771-0.127,1.068-0.387
		c0.299-0.256,0.447-0.598,0.447-1.014c0-0.434-0.16-0.85-0.483-1.25C33.038,46.563,32.669,46.358,32.256,46.358L32.256,46.358z"/>
</g>
</svg>
