<svg xmlns="http://www.w3.org/2000/svg" viewBox="0 0 101 101"><defs><style>.cls-1{fill:#2ac0d7;}</style></defs><title>ic_insta</title><g id="Layer_2" data-name="Layer 2"><g id="Layer_1-2" data-name="Layer 1"><path class="cls-1" d="M50.49,0A50.5,50.5,0,1,1,0,50.5,50.51,50.51,0,0,1,50.49,0Zm-.08,80.86V81c3,0,5.93,0,8.9,0a40.21,40.21,0,0,0,8.12-.65c6.86-1.53,11.16-5.7,12.79-12.56a37.45,37.45,0,0,0,.71-8.58q.06-8.71,0-17.43a39.42,39.42,0,0,0-.65-8.26C78.86,27,75,22.69,68.54,20.86A30,30,0,0,0,60.6,20q-10.17-.07-20.33,0a32,32,0,0,0-6.9.63C27,22.05,22.81,25.8,20.93,32.08A29.49,29.49,0,0,0,20,40c-.14,7.68-.2,15.35.09,23a24,24,0,0,0,.83,5.65,15.55,15.55,0,0,0,8.94,10.47,22.08,22.08,0,0,0,8.82,1.68C42.57,80.89,46.49,80.86,50.41,80.86Z"/><path class="cls-1" d="M50.46,25.28c4.25.09,8.51.16,12.77.29a14.09,14.09,0,0,1,6.54,1.61,10.35,10.35,0,0,1,5.12,7.1,25.18,25.18,0,0,1,.53,5.47q0,10.7,0,21.39a23,23,0,0,1-.66,6A10.26,10.26,0,0,1,66.13,75a27.14,27.14,0,0,1-4.77.45q-10.92.06-21.86,0a21.66,21.66,0,0,1-5.72-.65,10.32,10.32,0,0,1-7.85-8.54,39.12,39.12,0,0,1-.53-7.71c0-6.28,0-12.56.07-18.83a22.59,22.59,0,0,1,.68-6,10.31,10.31,0,0,1,8.53-7.79,48.32,48.32,0,0,1,8.41-.55c2.45,0,4.91,0,7.37,0ZM34.77,50.41A15.68,15.68,0,1,0,50.43,34.77,15.66,15.66,0,0,0,34.77,50.41Zm31.9-12.6a3.66,3.66,0,1,0-3.61-3.73A3.66,3.66,0,0,0,66.67,37.81Z"/><path class="cls-1" d="M40.23,50.44A10.21,10.21,0,1,1,50.41,60.65,10.22,10.22,0,0,1,40.23,50.44Z"/></g></g></svg>