<svg xmlns="http://www.w3.org/2000/svg" viewBox="0 0 100.99 101"><defs><style>.cls-1{fill:#2ac0d7;}</style></defs><title>ic_zalo</title><g id="Layer_2" data-name="Layer 2"><g id="Layer_1-2" data-name="Layer 1"><path class="cls-1" d="M53.51,101H47.84c-.11-.15-.28-.09-.42-.1a45.9,45.9,0,0,1-6.07-.72,49.07,49.07,0,0,1-27.55-15C2.27,72.68-2,57.93.87,41.23A47.81,47.81,0,0,1,16.1,13.55c12-11,26.22-15.29,42.29-12.92A48,48,0,0,1,87.18,15.82c11.16,12,15.53,26.28,13.2,42.47a48.88,48.88,0,0,1-14.22,28A50.4,50.4,0,0,1,55,100.8,3.93,3.93,0,0,0,53.51,101Zm-22-57.15H23.39a3.08,3.08,0,0,1-3.28-2.54c-.6-2.41.5-4.07,3-4.41a7.59,7.59,0,0,1,1.07-.06c6.07,0,12.13,0,18.19,0,.5,0,.56-.12.4-.57a3.77,3.77,0,0,0-3.9-2.75H16.27c-1.32,0-2.64,0-4,0a3.4,3.4,0,0,0-3.68,3.63c-.05,2.17,0,4.35,0,6.52,0,6.69,0,13.37,0,20.06a3.16,3.16,0,0,0,3,3.44,6.85,6.85,0,0,0,.91,0c1.3,0,2.6,0,3.91,0,.4,0,.5.12.51.51.05,1.27.16,2.53.24,3.79,0,.25,0,.43.35.21a30.32,30.32,0,0,0,2.7-1.95,9.1,9.1,0,0,1,6.65-2.55c3.59.17,7.17.13,10.76,0a13.21,13.21,0,0,0,2.59-.15,3.48,3.48,0,0,0,2.57-3.45c0-.46-.37-.21-.5-.17a17.85,17.85,0,0,1-5.5.45C35.44,64,34,64,32.61,64c-3.34,0-6.68.09-10-.11a2.9,2.9,0,0,1-2.54-4.51,5.48,5.48,0,0,1,.46-.72c2.88-4.06,6-8,8.9-12Zm32.6,10.51a50.62,50.62,0,0,0,.08-6.28,5.53,5.53,0,0,0-1.23-3.5,1.34,1.34,0,0,0-1.07-.52,12.2,12.2,0,0,0-2.83.53,1.14,1.14,0,0,1-.87-.09,10.72,10.72,0,0,0-2-.79c-3.36-1-6.47-.34-8.8,2.21a11.5,11.5,0,0,0,.22,15.44c2.8,2.87,6,3.54,9.28,1.86a2.79,2.79,0,0,1,2-.24,9.92,9.92,0,0,0,3.47.39,1.75,1.75,0,0,0,1.63-1.49,4.34,4.34,0,0,0,.12-1C64.08,58.74,64.07,56.55,64.07,54.36Zm9.83-.46a11,11,0,0,0,.36,3c1,3.77,3.28,6.42,7.17,7.32s7-.43,9.49-3.3a11.35,11.35,0,0,0-.08-14.31,9.7,9.7,0,0,0-13.72-.87A10.87,10.87,0,0,0,73.9,53.9Zm-7.53-4.54c0,3.61,0,7.21,0,10.82a7.59,7.59,0,0,0,.06,1.07,2.54,2.54,0,0,0,2,2.31,6.5,6.5,0,0,0,1.46.07,2.11,2.11,0,0,0,1.81-1.19,4.37,4.37,0,0,0,.47-2.13c0-7.25,0-14.5,0-21.75a6.22,6.22,0,0,0-.08-1,2.68,2.68,0,0,0-2.93-2.4,2.55,2.55,0,0,0-2.72,2.27,6.08,6.08,0,0,0-.08,1.13C66.37,42.19,66.37,45.77,66.37,49.36ZM31.3,56.82a.77.77,0,0,0,.55.1c3.4,0,6.8,0,10.2,0,.47,0,.59-.13.59-.59,0-4.69,0-9.37,0-14.06,0-.15.09-.33-.1-.48Z"/><path class="cls-1" d="M50.43,53.62a5.49,5.49,0,0,1,.83-3.06,3.51,3.51,0,0,1,5.94-.17,6,6,0,0,1,.53,6.08A3,3,0,0,1,55,58.37a3.65,3.65,0,0,1-3.75-1.56A5.87,5.87,0,0,1,50.43,53.62Z"/><path class="cls-1" d="M80,53.93a6.11,6.11,0,0,1,.69-3.19,3.07,3.07,0,0,1,2.12-1.55,3.73,3.73,0,0,1,4.81,3.07,6.78,6.78,0,0,1,0,3.52,3.71,3.71,0,0,1-4.08,2.84,3.55,3.55,0,0,1-3.4-3.14A7.78,7.78,0,0,1,80,53.93Z"/></g></g></svg>