<?xml version="1.0" encoding="utf-8"?>
<!-- Generator: Adobe Illustrator 17.0.0, SVG Export Plug-In . SVG Version: 6.00 Build 0)  -->
<!DOCTYPE svg PUBLIC "-//W3C//DTD SVG 1.1//EN" "http://www.w3.org/Graphics/SVG/1.1/DTD/svg11.dtd">
<svg version="1.1" id="Layer_1" xmlns="http://www.w3.org/2000/svg" xmlns:xlink="http://www.w3.org/1999/xlink" x="0px" y="0px"
	 width="101.25px" height="101px" viewBox="0 0 101.25 101" enable-background="new 0 0 101.25 101" xml:space="preserve">
<g transform="translate(608 512)">
	<g>
		<path fill="#18C0D9" d="M-557.375-511.5c-27.618,0-50,22.388-50,50s22.382,50,50,50c27.612,0,50-22.388,50-50
			S-529.763-511.5-557.375-511.5z M-532.528-474.244c0.024,0.549,0.036,1.099,0.036,1.654c0,16.949-12.896,36.481-36.481,36.481
			c-7.244,0-13.983-2.124-19.653-5.762c0.995,0.122,2.02,0.183,3.052,0.183c6.006,0,11.542-2.051,15.924-5.487
			c-5.609-0.097-10.339-3.815-11.981-8.905c0.781,0.146,1.587,0.232,2.417,0.232c1.166,0,2.294-0.159,3.375-0.452
			c-5.872-1.184-10.291-6.359-10.291-12.573c0-0.061,0-0.11,0-0.11c1.734,0.909,3.705,1.483,5.804,1.551
			c-3.436-2.301-5.701-6.226-5.701-10.675c0-2.35,0.629-4.547,1.734-6.439c6.323,7.751,15.778,12.86,26.434,13.397
			c-0.22-0.94-0.336-1.917-0.336-2.924c0-7.08,5.744-12.83,12.83-12.83c3.686,0,7.019,1.557,9.363,4.053
			c2.917-0.574,5.658-1.642,8.142-3.113c-0.959,2.997-2.997,5.506-5.64,7.092c2.594-0.311,5.066-1.001,7.361-2.014
			c-1.715,2.564-3.894,4.828-6.396,6.635L-532.528-474.244z"/>
	</g>
</g>
</svg>
