<?xml version="1.0" encoding="UTF-8"?>
<svg width="50px" height="50px" viewBox="0 0 50 50" version="1.1" xmlns="http://www.w3.org/2000/svg" xmlns:xlink="http://www.w3.org/1999/xlink">
    <!-- Generator: Sketch 44.1 (41455) - http://www.bohemiancoding.com/sketch -->
    <title>avatar-default</title>
    <desc>Created with Sketch.</desc>
    <defs></defs>
    <g id="Page-1" stroke="none" stroke-width="1" fill="none" fill-rule="evenodd">
        <g id="Desktop" transform="translate(-119.000000, -68.000000)" fill-rule="nonzero" fill="#FFFFFF">
            <g id="avatar-default" transform="translate(119.000000, 68.000000)">
                <path d="M25,0 C11.204726,0 0,11.204726 0,25 C0,38.795274 11.204726,50 25,50 C38.795274,50 50,38.795274 50,25 C50,11.204726 38.795274,0 25,0 Z M25,2 C37.714394,2 48,12.285606 48,25 C48,31.675184 45.158185,37.675707 40.625,41.875 C36.846976,39.152192 31.116709,38.705039 29.9375,35.53125 C29.7915,33.91925 29.84375,32.7855 29.84375,31.3125 C30.57375,30.9295 31.87275,28.5005 32.09375,26.4375 C32.66775,26.3905 33.57875,25.836 33.84375,23.625 C33.98675,22.438 33.4085,21.7725 33.0625,21.5625 C33.9965,18.7535 35.962,10.05425 29.5,9.15625 C28.835,7.98825 27.11925,7.40625 24.90625,7.40625 C16.05225,7.56925 14.9965,14.0925 16.9375,21.5625 C16.5925,21.7725 16.01425,22.438 16.15625,23.625 C16.42225,25.836 17.33225,26.3905 17.90625,26.4375 C18.12625,28.4995 19.48675,30.9295 20.21875,31.3125 C20.21875,32.7855 20.271,33.91925 20.125,35.53125 C18.942813,38.709375 13.169462,39.139899 9.375,41.875 C4.841815,37.675707 2,31.675184 2,25 C2,12.285606 12.285606,2 25,2 Z" id="Shape"></path>
            </g>
        </g>
    </g>
</svg>