<svg xmlns="http://www.w3.org/2000/svg" width="80" height="80" viewBox="0 0 60 60"><path d="M37.016 49.723c-.016-.22-.032-.438-.032-.66 0 .222.016.44.032.66zm0 0M37.078 47.672c.031-.223.059-.445.102-.664-.012.058-.028.11-.035.164-.036.168-.047.332-.067.5zm0 0M37.027 48.059c-.02.199-.023.398-.03.593.007-.199.01-.398.03-.593zm0 0M47.047 38.992c.11 0 .215.008.32.016-.105-.004-.21-.016-.32-.016zm0 0M37.18 50.992zm0 0M37.422 46.043zm0 0M46.043 39.04c.2-.02.41-.024.617-.032-.168.008-.332 0-.5.02-.039 0-.082.007-.117.011zm0 0M45.734 39.078c-.199.027-.406.055-.605.094.2-.04.402-.067.605-.094zm0 0M40.965 41.016l-.106.082zm0 0M49.992 39.465c-.117-.035-.23-.07-.344-.102.114.032.227.067.344.102zm0 0M49.156 39.242c-.117-.027-.234-.054-.355-.078.12.027.238.05.355.078zm0 0M48.285 39.086c-.117-.016-.23-.031-.347-.043.117.012.23.027.347.043zm0 0M43.832 39.508c-.11.035-.219.078-.324.117.105-.04.215-.082.324-.117zm0 0M44.754 39.25c-.16.035-.32.078-.48.121.16-.043.32-.086.48-.121zm0 0M40.355 41.516l-.175.16zm0 0M52.29 40.531c-.08-.05-.161-.093-.24-.14.079.047.16.09.24.14zm0 0M37.758 45.125zm0 0M38.18 44.234zm0 0M51.559 40.113zm0 0M39.203 42.71zm0 0M50.793 39.758zm0 0M39.516 42.355c.078-.09.16-.183.246-.27-.082.087-.164.18-.246.27zm0 0" fill="#9bc9ff"/><path d="M50.977 1H4.984c-1.105 0-2 .895-2 2v45.992c0 1.102.895 2 2 2H37.18a10.9 10.9 0 0 1-.145-.949c-.012-.102-.012-.215-.02-.32-.015-.22-.03-.438-.03-.66v-.07c0-.114.011-.227.015-.34.008-.2.012-.395.031-.594.012-.133.032-.258.047-.387.024-.168.035-.332.067-.5.011-.059.027-.11.035-.168l.023-.098c.063-.293.137-.582.223-.867l.015-.047c.09-.293.2-.582.317-.867l.015-.035a9 9 0 0 1 .41-.852l.005-.011c.292-.536.632-1.04 1.015-1.512.102-.125.207-.238.313-.356.082-.093.16-.183.246-.27.136-.144.277-.276.418-.413l.175-.156c.16-.145.333-.286.504-.418l.106-.082a9.88 9.88 0 0 1 2.543-1.391c.105-.04.215-.082.324-.117.145-.051.3-.094.441-.137.145-.043.32-.086.48-.121.126-.027.25-.055.376-.078.2-.04.398-.07.605-.094.102-.016.203-.027.309-.039.039 0 .078-.012.113-.016.172-.011.336-.011.5-.015.106 0 .211-.016.32-.016h.07c.106 0 .212.008.317.012.192.008.383.015.57.035.118.012.235.027.348.043.176.023.348.05.52.078.117.023.234.05.351.078.168.035.332.074.493.121.117.032.23.067.343.102a9.78 9.78 0 0 1 .801.289c.16.066.316.14.473.215.101.047.199.09.3.14.168.09.329.184.489.278.082.047.16.09.238.14.238.149.469.305.688.473V3a1.999 1.999 0 0 0-2-2zm-7 27.996H37.98v3.996h-4v4h-12v-4h-3.996v-3.996h-6V9h31.993zm0 0M43.508 39.625zm0 0M49.648 39.363zm0 0" fill="#9bc9ff"/><path d="M44.277 39.371c-.148.043-.3.086-.441.137.14-.051.289-.094.441-.137zm0 0M46.043 39.04c-.098.01-.203.026-.309.038.106-.012.207-.027.309-.039zm0 0M37.016 49.723c.007.105.007.215.02.32-.013-.105-.013-.215-.02-.32zm0 0M48.8 39.164zm0 0M47.938 39.043c-.188-.02-.38-.027-.57-.035.19.008.382.015.57.035zm0 0M52.05 40.39zm0 0M37.773 45.086l-.015.039zm0 0M36.98 49.063c0-.137.008-.274.012-.41 0 .113-.015.226-.015.34a.402.402 0 0 1 .003.07zm0 0M51.262 39.973zm0 0M50.469 39.633zm0 0M39.516 42.355c-.102.118-.211.235-.313.356.102-.117.207-.238.313-.356zm0 0M40.86 41.098zm0 0M38.188 44.223l-.004.011zm0 0M37.2 46.91l-.024.102.023-.102zm0 0M52.977 41.004zm0 0M37.441 45.992l-.02.055zm0 0M39.762 42.086zm0 0M46.66 39.008c.13 0 .258-.012.387-.012h-.07c-.106-.004-.211.012-.317.012zm0 0M45.129 39.172c-.125.023-.25.05-.375.078.125-.027.25-.059.375-.078zm0 0M37.078 47.672c-.016.129-.035.254-.05.387.011-.13.03-.258.05-.387zm0 0" fill="#9bc9ff"/><path d="M53.977 40.54V3a3 3 0 0 0-3-3H4.984a3 3 0 0 0-3 3v45.992a3 3 0 0 0 3 3h31.414a11 11 0 0 0 21.579-3 10.872 10.872 0 0 0-4-8.453zM4.984 49.991c-.55 0-1-.449-1-1V3c0-.55.45-1 1-1h45.993c.55 0 1 .45 1 1v36.2l-.024-.009a10.615 10.615 0 0 0-2.777-.968l-.102-.024c-.46-.09-.93-.148-1.398-.18-.055 0-.11 0-.16-.003-.184-.008-.36-.024-.54-.024-.226 0-.449.024-.675.035-.074.004-.149 0-.223 0-.039 0-.082.012-.121.016a11.498 11.498 0 0 0-.996.145c-.152.027-.305.062-.457.097-.152.04-.3.074-.45.117-.199.055-.39.114-.581.176l-.18.067a11.057 11.057 0 0 0-5.652 4.562c-.098.16-.2.32-.297.488-.043.078-.082.157-.121.235a10.218 10.218 0 0 0-.414.883 9.163 9.163 0 0 0-.313.847c-.016.043-.027.082-.039.121-.09.297-.168.598-.234.907-.008.046-.02.09-.028.136-.011.047-.03.117-.039.176-.02.102-.02.2-.035.3-.05.317-.086.634-.11.958-.007.148-.015.3-.019.445 0 .102-.015.192-.015.29 0 .26.02.519.039.777v.222zm41.993 7.996a9.017 9.017 0 0 1-8.817-7.199 8.22 8.22 0 0 1-.133-.879c-.007-.058 0-.12-.011-.18a8.464 8.464 0 0 1-.036-.699c0-.093.008-.187.012-.277a8.16 8.16 0 0 1 .031-.621c.008-.094.024-.184.036-.274.027-.222.058-.445.101-.66 0-.015.008-.031.012-.047.055-.28.125-.554.21-.824v-.016c.087-.273.184-.539.294-.8l.011-.028c.11-.25.227-.5.356-.734.008-.016.02-.035.027-.055.13-.23.266-.457.414-.68.09-.136.192-.265.29-.398.058-.078.113-.156.175-.234.137-.168.281-.332.43-.492l.05-.059a9.238 9.238 0 0 1 3.473-2.285l.223-.082c.14-.047.285-.09.43-.13.144-.042.273-.073.414-.105.113-.027.226-.05.34-.074.183-.035.367-.062.554-.082.086-.011.176-.027.266-.035.195-.02.39-.023.586-.031.101 0 .207-.012.312-.008.063 0 .121.004.184.008.2.004.41.012.613.031l.184.023c.203.024.41.051.61.09a8.267 8.267 0 0 1 .777.184l.152.043c.2.059.398.129.601.2l.149.058c.191.074.383.16.57.25l.16.078c.18.094.36.2.535.3.051.028.106.06.157.09.222.137.437.286.648.446h.008a8.91 8.91 0 0 1 3.602 7.191c-.008 4.965-4.032 8.992-9 8.996zm0 0" fill="#1e81ce"/><path d="M38.98 29.996h5.997V8H10.984v21.996h6v3.996h3.996v4h14v-4h4zm-2 2h-4v3.996h-10v-3.996h-3.996v-4h-6V10h2v6.996h2V10h2v6.996h1.996V10h2v6.996h2V10h2v6.996h2V10h2v6.996h2V10h2v6.996h2V10h2v6.996h2V10h1.997v17.996H36.98zm0 0M7.984 43.992H27.98v2H7.984zm0 0M29.98 43.992h4v2h-4zm0 0M51.633 44.336a1 1 0 0 0-1.414 0l-3.242 3.242-3.243-3.242a.999.999 0 0 0-1.687.441c-.09.348.016.72.273.973l3.242 3.242-3.242 3.242c-.258.25-.363.621-.273.973a1.004 1.004 0 0 0 1.687.441l3.243-3.242 3.242 3.242a1 1 0 0 0 .972.27.999.999 0 0 0 .441-1.684l-3.241-3.242 3.242-3.242a1 1 0 0 0 0-1.414zm0 0" fill="#1e81ce"/></svg>