<svg xmlns="http://www.w3.org/2000/svg" width="60" height="60" viewBox="0 0 60 60">
  <g fill="none" fill-rule="evenodd">
    <rect width="60" height="60" fill="#FFF" fill-opacity=".01"/>
    <g fill-rule="nonzero" transform="translate(1.2 4.2)">
      <rect width="50.883" height="50.883" x=".358" y=".358" fill="#FFF"/>
      <path fill="#00C1DE" d="M50.8833333,0.716666667 L50.8833333,50.8833333 L0.716666667,50.8833333 L0.716666667,0.716666667 L50.8833333,0.716666667 L50.8833333,0.716666667 Z M51.6,0 L0,0 L0,51.6 L51.6,51.6 L51.6,0 L51.6,0 Z"/>
      <g fill="#00C1DE">
        <rect width="50.883" height="7.883" x=".358" y=".358" fill-opacity=".5"/>
        <path d="M50.8833333,0.716666667 L50.8833333,7.88333333 L0.716666667,7.88333333 L0.716666667,0.716666667 L50.8833333,0.716666667 L50.8833333,0.716666667 Z M51.6,0 L0,0 L0,8.6 L51.6,8.6 L51.6,0 L51.6,0 Z"/>
      </g>
      <rect width="2.867" height="2.867" x="15.767" y="17.2" fill="#00C1DE" fill-opacity=".2"/>
      <rect width="2.867" height="2.867" x="27.233" y="17.2" fill="#00C1DE" fill-opacity=".2"/>
      <rect width="2.867" height="2.867" x="32.967" y="17.2" fill="#00C1DE" fill-opacity=".2"/>
      <rect width="2.867" height="2.867" x="38.7" y="17.2" fill="#00C1DE" fill-opacity=".2"/>
      <rect width="2.867" height="2.867" x="10.033" y="22.933" fill="#00C1DE" fill-opacity=".2"/>
      <rect width="2.867" height="2.867" x="15.767" y="22.933" fill="#00C1DE" fill-opacity=".2"/>
      <rect width="2.867" height="2.867" x="27.233" y="22.933" fill="#00C1DE" fill-opacity=".2"/>
      <rect width="2.867" height="2.867" x="32.967" y="22.933" fill="#00C1DE" fill-opacity=".2"/>
      <rect width="2.867" height="2.867" x="38.7" y="22.933" fill="#00C1DE" fill-opacity=".2"/>
      <rect width="2.867" height="2.867" x="10.033" y="34.4" fill="#00C1DE" fill-opacity=".2"/>
      <rect width="2.867" height="2.867" x="15.767" y="34.4" fill="#00C1DE" fill-opacity=".2"/>
      <rect width="2.867" height="2.867" x="27.233" y="34.4" fill="#00C1DE" fill-opacity=".2"/>
      <rect width="2.867" height="2.867" x="21.5" y="17.2" fill="#00C1DE" fill-opacity=".2"/>
      <rect width="2.867" height="2.867" x="21.5" y="22.933" fill="#00C1DE" fill-opacity=".2"/>
      <rect width="2.867" height="2.867" x="10.033" y="28.667" fill="#00C1DE" fill-opacity=".2"/>
      <rect width="2.867" height="2.867" x="15.767" y="28.667" fill="#00C1DE" fill-opacity=".2"/>
      <rect width="2.867" height="2.867" x="27.233" y="28.667" fill="#00C1DE" fill-opacity=".2"/>
      <rect width="2.867" height="2.867" x="32.967" y="28.667" fill="#00C1DE" fill-opacity=".2"/>
      <rect width="2.867" height="2.867" x="38.7" y="28.667" fill="#00C1DE" fill-opacity=".2"/>
      <rect width="2.867" height="2.867" x="21.5" y="28.667" fill="#00C1DE" fill-opacity=".2"/>
      <rect width="2.867" height="2.867" x="21.5" y="34.4" fill="#00C1DE" fill-opacity=".2"/>
      <rect width="2.867" height="2.867" x="32.967" y="34.4" fill="#00C1DE" fill-opacity=".2"/>
      <rect width="50.167" height="3.583" x=".717" y="47.3" fill="#00C1DE" fill-opacity=".3"/>
      <g transform="matrix(-1 0 0 1 57.6 17.4)">
        <g fill="#003C71" transform="translate(0 19.693)">
          <path d="M1.34939362,12.6598465 C0.988614858,12.6598465 0.649746949,12.5213744 0.394620534,12.2701717 C-0.131540178,11.7514929 -0.131540178,10.9070494 0.394620534,10.3883706 L11.4484977,0 L12.8459902,1.37909984 L2.30146537,12.2725387 C2.0490403,12.5213744 1.70987224,12.6598465 1.34939362,12.6598465 Z"/>
          <path d="M11.2799338,0.40235673 L12.4378346,1.54495774 L2.28445256,12.0350136 C2.06373322,12.2523093 1.77090053,12.3720377 1.45909066,12.3720377 C1.14728079,12.3720377 0.85415615,12.2523093 0.633728759,12.0350136 C0.178568091,11.5863197 0.178568091,10.8564365 0.628765493,10.4126353 L11.2799338,0.40235673 L11.2799338,0.40235673 Z M11.2851891,0 L0.427315294,10.2045495 C-0.1425844,10.7663523 -0.142292443,11.6769794 0.427315294,12.2387822 C0.712265141,12.5193958 1.0856779,12.6598465 1.45909066,12.6598465 C1.83250342,12.6598465 2.20591618,12.5193958 2.49086603,12.2384944 L12.8459902,1.54064061 L11.2851891,0 L11.2851891,0 Z"/>
        </g>
        <g transform="translate(8.564)">
          <path fill="#FFF" fill-opacity=".6" d="M12.4891571,24.3796724 C5.73492488,24.3796724 0.240176098,18.9645448 0.240176098,12.3081841 C0.240176098,5.65182348 5.73492488,0.236695849 12.4891571,0.236695849 C19.2433894,0.236695849 24.7381381,5.65182348 24.7381381,12.3081841 C24.7381381,18.9645448 19.2433894,24.3796724 12.4891571,24.3796724 Z"/>
          <path fill="#003C71" d="M12.4891571,0.473391698 C19.1108122,0.473391698 24.497962,5.78247959 24.497962,12.3081841 C24.497962,18.8338887 19.1108122,24.1429766 12.4891571,24.1429766 C5.86750209,24.1429766 0.480352197,18.8338887 0.480352197,12.3081841 C0.480352197,5.78247959 5.86750209,0.473391698 12.4891571,0.473391698 L12.4891571,0.473391698 Z M12.4891571,0 C5.59177992,0 0,5.51075275 0,12.3081841 C0,19.1056155 5.59177992,24.6163683 12.4891571,24.6163683 C19.3865343,24.6163683 24.9783142,19.1056155 24.9783142,12.3081841 C24.9783142,5.51075275 19.3865343,0 12.4891571,0 L12.4891571,0 Z"/>
        </g>
      </g>
    </g>
  </g>
</svg>
