<svg xmlns="http://www.w3.org/2000/svg" width="16" height="15" fill="none" viewBox="0 0 16 15">
    <path fill="#EC971F" d="M8.715 7.887h-2.43V15h2.43V7.887z"/>
    <path fill="#EC971F" d="M7.5 5.412L4.706 8.505h5.587L7.5 5.412z"/>
    <path fill="#EC971F" d="M14.909 6.402c-.304.062-.607 0-.911-.124-.911-.37-1.397-1.484-.972-2.412.122-.31.304-.557.547-.742-.425-.619-.972-1.176-1.58-1.67a1.834 1.834 0 0 1-2.125.556A1.761 1.761 0 0 1 8.775.093a8.396 8.396 0 0 0-2.49 0c.061.31 0 .618-.121.928a1.892 1.892 0 0 1-2.43.99 1.661 1.661 0 0 1-.728-.557c-.607.433-1.154 1.051-1.64 1.67.668.495.911 1.36.608 2.165A1.72 1.72 0 0 1 .09 6.402a8.028 8.028 0 0 0 0 2.412c.304-.061.607 0 .911.124.911.433 1.397 1.547.972 2.474-.122.31-.304.557-.547.743.425.618 1.033 1.175 1.64 1.67.425-.619 1.214-.866 1.943-.619v-1.732a4.566 4.566 0 0 1-2.125-3.897C2.885 5.041 4.889 3 7.439 3c2.55 0 4.555 2.041 4.555 4.577 0 1.609-.85 3.093-2.126 3.897v1.98c.426-.186.911-.186 1.397 0 .182.061.425.185.547.37.668-.494 1.275-1.05 1.76-1.793-.606-.495-.85-1.36-.546-2.165a1.72 1.72 0 0 1 1.883-1.113 7.621 7.621 0 0 0 0-2.35z"/>
</svg>
